<?xml version="1.0" encoding="utf-8"?>
<!-- Generator: Adobe Illustrator 25.0.1, SVG Export Plug-In . SVG Version: 6.00 Build 0)  -->
<svg version="1.0" id="katman_1" xmlns="http://www.w3.org/2000/svg" xmlns:xlink="http://www.w3.org/1999/xlink" x="0px" y="0px"
	 viewBox="0 0 101.4 69.1" style="enable-background:new 0 0 101.4 69.1;" xml:space="preserve">
<style type="text/css">
	.st0{clip-path:url(#SVGID_2_);}
	.st1{fill:#FDB913;}
	.st2{fill:#FFFFFF;}
	.st3{fill:#231F20;}
</style>
<g>
	<defs>
		<rect id="SVGID_1_" x="24.2" y="9.6" width="52.4" height="50"/>
	</defs>
	<clipPath id="SVGID_2_">
		<use xlink:href="#SVGID_1_"  style="overflow:visible;"/>
	</clipPath>
	<g class="st0">
		<path class="st1" d="M61.6,13.2c-3-2.4-6.8-3.6-10.5-3.6c-4.6,0-8.7,1.3-12.2,3.6H27c-1.5,4.2-2.4,8.9-2.7,13.3
			c-0.4,4.8,0,9.7,1.4,14.2c2.4,7.7,8.1,14.3,18.7,18.8c8.1-2.7,15.8-7.7,21.3-14.3c5.5-6.6,8.7-15.1,10.1-23.5
			c0.5-2.8,0.8-5.7,0.8-8.6L61.6,13.2z M28.6,15.3h8c-0.8,1-1.5,2.1-2,3.3c-0.8,0-4.3,0.1-7.1,0.8C27.8,18,28.2,16.6,28.6,15.3
			L28.6,15.3z M65.9,41.6c-5.1,7.3-13,12.9-21.4,15.7c-4.7-1.8-8.8-4.7-11.9-8.4c0.8-2.8,3.1-6.8,6.8-9.4c-4.3,1.6-7.5,4.8-8.9,6.5
			c-1-1.6-1.8-3.3-2.5-5.2c-1.9-5.5-2-12.1-1.1-18.3c1.2-0.8,3.7-1.9,7.1-2.2c-0.1,0.5-0.1,0.9-0.1,1.4c0,1.7,0.6,3.3,1.7,4.5
			c1.3,1.6,3.6,2,5.1,2c1.5,0,3-0.8,3.5-1.4c-1,0.3-2.1,0.4-3.2,0.3c-1.9-0.2-3.6-1.1-4.5-2.3c-3.4-5,2.7-10.7,8.9-12.5
			c5.9-1.7,12.2-0.3,15.5,2.9h13.5C74,25.3,70.9,34.5,65.9,41.6z M39.1,46.8c-0.2,0-0.4,0.1-0.6,0.2c-0.2,0.1-0.3,0.3-0.4,0.5
			S37.9,47.8,38,48c0,0.2,0.1,0.4,0.3,0.6c0.1,0.2,0.3,0.3,0.5,0.3c0.2,0,0.4,0,0.6-0.1c0.2-0.1,0.4-0.2,0.5-0.4
			c0.1-0.2,0.2-0.4,0.2-0.6c0-0.1,0-0.3-0.1-0.4c-0.1-0.1-0.1-0.3-0.2-0.4s-0.2-0.2-0.3-0.2C39.3,46.8,39.2,46.8,39.1,46.8
			L39.1,46.8z M39.3,48.6L39,48.1h-0.1v0.5h-0.4v-1.5h0.6c0.1,0,0.1,0,0.2,0c0.1,0,0.1,0.1,0.2,0.1s0.1,0.1,0.1,0.2
			c0,0.1,0,0.1,0,0.2c0,0.1,0,0.2,0,0.2c0,0.1-0.1,0.1-0.2,0.2l0.3,0.6L39.3,48.6z M39,47.5h-0.1v0.3H39c0.1,0,0.2,0,0.2-0.2
			C39.2,47.5,39.1,47.5,39,47.5z M55.1,41c-0.9,1.3-2,2.7-2.8,3.9c-0.5,0.6-1,1.6-1.2,2.6c-0.3,0-0.5-0.2-0.7-0.4
			c-0.8,0.5-1.7,0.2-2.1-0.2c0.6-0.1,1.1-0.3,1.6-0.6c-0.4-1-0.2-2.5-0.2-2.5c-1-0.2-1.6,0-1.6,0s0.4,0.4,0.6,0.6c0,0-0.2,0.9,0,1.6
			c0,0-1.2,0.5-2.4,0.2c-0.4-1.3-0.2-2.8-0.2-2.8c-0.6-1.2-1.5-1.2-1.5-1.2c0.3,0.4,0.6,0.8,0.8,1.2c-0.2,0.8-0.3,1.5-0.3,2.3
			c-0.7-0.4-1.3-1-1.8-1.6c-0.3-1.5-0.4-3-0.4-4.5c-1.8-3.4-1.3-5.9-1.3-5.9c0.9-1.3,2.6-2.2,2.6-2.2c-2.2-0.1-3.7,1-4.2,1.6
			c-0.3,2.1,0.4,5.1,1.3,7c0,0-4.3,3.9-4.7,8.6c2,1.9,4.5,3.6,7.7,4.9C55.7,49.6,62.1,42.3,65.9,35c3.2-6.1,4.5-12.3,5-16.4h-7.6
			c1.4,2.6,1.6,5.1,1.1,7.5C66.7,32.3,62,38.9,55.1,41L55.1,41z M39.1,49.3c-0.3,0-0.6-0.1-0.8-0.2c-0.2-0.2-0.4-0.4-0.5-0.6
			c-0.1-0.3-0.1-0.5-0.1-0.8c0.1-0.3,0.2-0.5,0.4-0.7c0.2-0.2,0.4-0.3,0.7-0.4c0.3-0.1,0.6,0,0.8,0.1c0.3,0.1,0.5,0.3,0.6,0.5
			c0.2,0.2,0.2,0.5,0.2,0.8c0,0.2,0,0.4-0.1,0.5c-0.1,0.2-0.2,0.3-0.3,0.5c-0.1,0.1-0.3,0.2-0.5,0.3C39.4,49.2,39.2,49.3,39.1,49.3
			L39.1,49.3z M52.4,37.5c1.2,0.3,2.4-0.4,2.6-0.6c-0.4,0-0.7,0-1.1-0.1c0.6-1,0.8-2.3,0.8-2.3c-0.2-0.7-0.5-1.4-0.8-2
			C54,33,54,33.5,54,34C53.8,35,53,36.6,52.4,37.5L52.4,37.5z M49.2,20.7c-0.1,1-0.4,2-0.9,2.8c0.7,0.3,1.4,0.7,2.1,1.1
			c0.2-1.7,1.4-1.7,1.7-3.5c0,0,0.9,0.5,1.9,1.7c0-0.5,0-1-0.2-1.4c-0.1-0.5-0.4-0.9-0.7-1.2c-1.5-1.6-5-1.1-6.1-0.7
			c-1.6,0.5-3.1,1.3-4,2c1.3,0.3,2.6,0.8,3.8,1.3C47.8,22.1,48.7,21.3,49.2,20.7L49.2,20.7z"/>
		<path class="st2" d="M52,33.1c-0.7,0.2-1.1,1.1-0.9,1.9c0.1,0.5,0.4,0.9,0.8,1.3c0-0.2,0.1-0.4,0.1-0.5c-0.4-0.3-0.5-0.9-0.2-1.3
			c0.1-0.1,0.2-0.2,0.4-0.3c0,0.1,0,0.1,0,0.2c0,0.1,0.1,0.1,0.1,0.1c0,0,0.1,0.1,0.1,0.1c0.1,0,0.1,0,0.2,0c0.2-0.5,0.2-1,0.1-1.4
			C52.5,33.1,52.2,33.1,52,33.1z M57.6,35.1c-0.1,1.1-0.4,2.1-0.8,3.1c0.4-0.2,0.7-0.4,1.1-0.6c2.3-1.5,5.2-4.7,5.2-8.4
			C61.9,31.5,59.8,33.5,57.6,35.1L57.6,35.1z M59.6,17c-1.3-1.3-2.9-2.3-4.7-2.8c2.3,1.4,5.3,7.2,0.1,12c-0.1,0.2-1.1,2.5,0.5,5.1
			c0.8,1.4,1.7,1.4,1.7,1.4C61.1,29.7,65.5,23.2,59.6,17z M38,24c0.4,1.2,3,3.3,7.4,0.9C42.1,25.3,39.7,25,38,24z M46.5,14.2
			c-3.7,1.1-6.9,3.3-8.2,5.9c-0.7,1.5,0.2,3,1.8,3.4C40,23.2,40,23,40,22.7c-0.2-2.4,4.5-4.8,8.9-5.6c0.4-0.1,0.9-0.1,1.3-0.2
			C51.3,14.6,46.5,14.2,46.5,14.2z"/>
		<path class="st3" d="M60.9,15.3c-3.3-3.3-9.6-4.6-15.5-2.9c-6.3,1.8-12.4,7.4-9,12.5c0.8,1.2,2.5,2.1,4.5,2.3
			c1.1,0.1,2.2,0,3.2-0.3c-0.5,0.6-2,1.4-3.5,1.4c-1.5,0-3.8-0.4-5.1-2c-1.1-1.3-1.7-2.9-1.7-4.5c0-0.5,0-0.9,0.1-1.4
			c-3.4,0.3-5.9,1.4-7.1,2.2c-0.9,6.2-0.8,12.8,1.1,18.3c0.6,1.8,1.4,3.5,2.5,5.2c1.4-1.7,4.6-4.9,8.9-6.5c-3.7,2.6-6.1,6.5-6.8,9.4
			c3.1,3.7,7.2,6.6,11.9,8.4c8.4-2.8,16.3-8.4,21.4-15.7c5-7.1,8.1-16.4,8.6-26.3L60.9,15.3z M55,14.1c1.8,0.5,3.4,1.5,4.7,2.8
			c5.9,6.2,1.5,12.8-2.3,15.7c0,0-0.9,0-1.7-1.4c-1.6-2.6-0.6-4.9-0.5-5.1C60.3,21.4,57.3,15.6,55,14.1L55,14.1z M63.2,29.2
			c0,3.7-3,6.9-5.2,8.4c-0.4,0.2-0.7,0.4-1.1,0.6c0.4-1,0.7-2,0.8-3.1C59.8,33.5,61.9,31.5,63.2,29.2L63.2,29.2z M54.8,34.6
			c0,0-0.2,1.3-0.8,2.3c0.4,0.1,0.7,0.1,1.1,0.1c-0.3,0.2-1.5,0.9-2.6,0.6C53,36.6,53.8,35,54,34c0-0.5,0-1-0.1-1.4
			C54.3,33.2,54.6,33.9,54.8,34.6L54.8,34.6z M52,35.8c-0.1,0.2-0.1,0.3-0.1,0.5c-0.4-0.4-0.6-0.8-0.8-1.3c-0.2-0.8,0.2-1.7,0.9-1.9
			c0.2,0,0.5,0,0.7,0c0.1,0.5,0.1,1-0.1,1.4c-0.1,0-0.1,0-0.2,0c-0.1,0-0.1,0-0.1-0.1c0,0-0.1-0.1-0.1-0.1c0-0.1,0-0.1,0-0.2
			c-0.2,0.1-0.3,0.2-0.4,0.3C51.4,34.9,51.6,35.5,52,35.8L52,35.8z M53,20.2c0.3,0.4,0.6,0.8,0.7,1.2s0.2,0.9,0.2,1.4
			c-0.9-1.2-1.9-1.7-1.9-1.7c-0.2,1.8-1.4,1.8-1.7,3.5c-0.7-0.4-1.4-0.8-2.1-1.1c0.5-0.9,0.8-1.8,0.9-2.8c-0.5,0.6-1.4,1.4-2.4,2.1
			c-1.2-0.5-2.5-1-3.8-1.3c0.9-0.8,2.4-1.5,4-2C48,19.1,51.5,18.6,53,20.2z M38.3,20.1c1.3-2.6,4.5-4.9,8.2-5.9c0,0,4.8,0.4,3.7,2.9
			c-0.4,0-0.8,0.1-1.3,0.2c-4.4,0.7-9.2,3.2-8.9,5.6c0,0.3,0.1,0.5,0.2,0.7C38.6,23.1,37.6,21.6,38.3,20.1z M38,24
			c1.6,0.9,4.1,1.3,7.4,0.9C41,27.4,38.4,25.3,38,24z M44.4,53.8c-3.2-1.4-5.7-3.1-7.7-4.9c0.3-4.7,4.7-8.6,4.7-8.6
			c-0.9-1.9-1.6-4.9-1.3-7c0.5-0.6,1.9-1.7,4.2-1.6c0,0-1.7,0.9-2.6,2.2c0,0-0.4,2.5,1.3,5.9c0,1.5,0.2,3,0.4,4.5
			c0.5,0.7,1.1,1.2,1.8,1.6c0-0.8,0.2-1.6,0.3-2.3c-0.2-0.4-0.5-0.8-0.8-1.2c0,0,0.9,0,1.5,1.2c0,0-0.2,1.5,0.2,2.8
			c1.2,0.2,2.4-0.2,2.4-0.2c-0.2-0.7,0-1.6,0-1.6c-0.2-0.2-0.6-0.6-0.6-0.6s0.5-0.3,1.6,0c0,0-0.2,1.4,0.2,2.5
			c-0.5,0.3-1.1,0.5-1.6,0.6c0.4,0.4,1.3,0.7,2.1,0.2c0.2,0.2,0.4,0.3,0.7,0.4c0.1-1,0.7-2,1.2-2.6c0.8-1.2,1.9-2.6,2.8-3.9
			c6.8-2,11.6-8.7,9.3-14.9c0.6-2.4,0.3-4.9-1.1-7.5h7.6c-0.5,4.1-1.8,10.3-5,16.4C62.1,42.3,55.7,49.6,44.4,53.8L44.4,53.8z
			 M36.6,15.3h-8c-0.4,1.3-0.8,2.7-1.1,4.1c2.8-0.7,6.3-0.8,7-0.8C35,17.4,35.7,16.3,36.6,15.3L36.6,15.3z M39,46.4
			c-0.3,0-0.6,0.1-0.8,0.2c-0.2,0.2-0.4,0.4-0.5,0.6c-0.1,0.3-0.1,0.5-0.1,0.8c0.1,0.3,0.2,0.5,0.4,0.7c0.2,0.2,0.4,0.3,0.7,0.4
			c0.3,0.1,0.6,0,0.8-0.1c0.3-0.1,0.5-0.3,0.6-0.5c0.2-0.2,0.2-0.5,0.2-0.8c0-0.4-0.1-0.7-0.4-1C39.8,46.6,39.4,46.4,39,46.4
			L39,46.4z M39,48.9c-0.2,0-0.4-0.1-0.6-0.2c-0.2-0.1-0.3-0.3-0.4-0.5c-0.1-0.2-0.1-0.4-0.1-0.6c0-0.2,0.1-0.4,0.3-0.6
			c0.1-0.2,0.3-0.3,0.5-0.3c0.2,0,0.4,0,0.6,0.1c0.2,0.1,0.4,0.2,0.5,0.4c0.1,0.2,0.2,0.4,0.2,0.6c0,0.1,0,0.3-0.1,0.4
			c-0.1,0.1-0.1,0.3-0.2,0.4c-0.1,0.1-0.2,0.2-0.3,0.2C39.3,48.9,39.2,48.9,39,48.9L39,48.9z M39.6,47.6c0-0.1,0-0.1,0-0.2
			s-0.1-0.1-0.1-0.2c0,0-0.1-0.1-0.2-0.1c-0.1,0-0.1,0-0.2,0h-0.6v1.5h0.4v-0.5H39l0.2,0.5h0.4L39.4,48c0.1,0,0.1-0.1,0.2-0.2
			C39.6,47.8,39.6,47.7,39.6,47.6L39.6,47.6z M39,47.7h-0.1v-0.3H39c0.1,0,0.2,0,0.2,0.1C39.2,47.7,39.1,47.7,39,47.7L39,47.7z"/>
	</g>
</g>
</svg>
